<svg width="18" height="17" viewBox="0 0 18 17" fill="none" xmlns="http://www.w3.org/2000/svg">
<path d="M8.22 0.219676C8.36063 0.0792253 8.55125 0.000335693 8.75 0.000335693C8.94875 0.000335693 9.13937 0.0792253 9.28 0.219676L12.78 3.71968C12.9205 3.8603 12.9993 4.05093 12.9993 4.24968C12.9993 4.44843 12.9205 4.63905 12.78 4.77968H9.5V11.7497C9.5 11.9486 9.42098 12.1394 9.28033 12.28C9.13968 12.4207 8.94891 12.4997 8.75 12.4997C8.55109 12.4997 8.36032 12.4207 8.21967 12.28C8.07902 12.1394 8 11.9486 8 11.7497V4.77968H4.72C4.57955 4.63905 4.50066 4.44843 4.50066 4.24968C4.50066 4.05093 4.57955 3.8603 4.72 3.71968L8.22 0.219676ZM16.75 11.4997C16.9489 11.4997 17.1397 11.5787 17.2803 11.7193C17.421 11.86 17.5 12.0508 17.5 12.2497V13.2497C17.5 14.2442 17.1049 15.1981 16.4017 15.9013C15.6984 16.6046 14.7446 16.9997 13.75 16.9997H3.75C2.75544 16.9997 1.80161 16.6046 1.09835 15.9013C0.395088 15.1981 0 14.2442 0 13.2497V12.2537C0 12.0548 0.0790175 11.864 0.21967 11.7233C0.360322 11.5827 0.551088 11.5037 0.75 11.5037C0.948912 11.5037 1.13968 11.5827 1.28033 11.7233C1.42098 11.864 1.5 12.0548 1.5 12.2537V13.2497C1.5 13.8464 1.73705 14.4187 2.15901 14.8407C2.58097 15.2626 3.15326 15.4997 3.75 15.4997H13.75C14.3467 15.4997 14.919 15.2626 15.341 14.8407C15.7629 14.4187 16 13.8464 16 13.2497V12.2497C16 12.0508 16.079 11.86 16.2197 11.7193C16.3603 11.5787 16.5511 11.4997 16.75 11.4997Z" fill="#7F7F7F"/>
</svg>
